<?xml version="1.0" encoding="UTF-8" standalone="no"?>
<svg
   xmlns:dc="http://purl.org/dc/elements/1.1/"
   xmlns:cc="http://creativecommons.org/ns#"
   xmlns:rdf="http://www.w3.org/1999/02/22-rdf-syntax-ns#"
   xmlns:svg="http://www.w3.org/2000/svg"
   xmlns="http://www.w3.org/2000/svg"
   viewBox="0 0 26.666668 26.666668"
   height="26.666668"
   width="26.666668"
   xml:space="preserve"
   id="svg2"
   version="1.1"><metadata
     id="metadata8"><rdf:RDF><cc:Work
         rdf:about=""><dc:format>image/svg+xml</dc:format><dc:type
           rdf:resource="http://purl.org/dc/dcmitype/StillImage" /></cc:Work></rdf:RDF></metadata><defs
     id="defs6"><clipPath
       id="clipPath18"
       clipPathUnits="userSpaceOnUse"><path
         id="path16"
         d="M 0,20 H 20 V 0 H 0 Z" /></clipPath></defs><g
     transform="matrix(1.3333333,0,0,-1.3333333,0,26.666667)"
     id="g10"><g
       id="g12"><g
         clip-path="url(#clipPath18)"
         id="g14"><g
           transform="translate(12.7268,7.4912)"
           id="g20"><path
             id="path22"
             style="fill:#e7a600;fill-opacity:1;fill-rule:nonzero;stroke:none"
             d="m 0,0 c -0.019,-0.03 -0.027,-0.04 -0.032,-0.051 -0.273,-0.578 -0.584,-1.132 -0.998,-1.622 -0.022,-0.026 -0.034,-0.08 -0.024,-0.111 0.27,-0.803 0.685,-1.522 1.264,-2.141 0.035,-0.038 0.081,-0.066 0.146,-0.118 0.168,0.284 0.336,0.545 0.482,0.818 0.25,0.471 0.446,0.965 0.587,1.479 0.012,0.042 -0.002,0.11 -0.03,0.14 -0.304,0.327 -0.62,0.641 -0.917,0.974 C 0.308,-0.442 0.168,-0.224 0,0 m -5.43,-0.008 c -0.095,-0.114 -0.191,-0.214 -0.27,-0.326 -0.33,-0.467 -0.718,-0.883 -1.132,-1.275 -0.027,-0.025 -0.042,-0.088 -0.032,-0.125 0.032,-0.122 0.079,-0.24 0.118,-0.361 0.198,-0.609 0.459,-1.188 0.805,-1.727 0.144,-0.226 0.149,-0.227 0.33,-0.034 0.54,0.576 0.96,1.226 1.196,1.988 0.029,0.096 0.015,0.162 -0.04,0.244 -0.248,0.371 -0.493,0.745 -0.729,1.124 -0.092,0.148 -0.158,0.313 -0.246,0.492 m 0.613,-3.668 c 0.03,-0.05 0.053,-0.09 0.077,-0.129 0.199,-0.328 0.383,-0.666 0.601,-0.979 0.319,-0.458 0.741,-0.805 1.241,-1.05 0.079,-0.038 0.196,-0.063 0.27,-0.033 0.395,0.161 0.731,0.415 1.027,0.719 0.38,0.39 0.661,0.85 0.917,1.328 0.053,0.099 0.051,0.167 -0.016,0.259 -0.26,0.365 -0.49,0.748 -0.649,1.17 -0.027,0.071 -0.072,0.135 -0.114,0.213 -0.054,-0.046 -0.087,-0.077 -0.124,-0.104 -0.313,-0.234 -0.625,-0.469 -0.942,-0.697 -0.129,-0.094 -0.269,-0.088 -0.4,0.003 -0.229,0.158 -0.458,0.314 -0.681,0.479 -0.138,0.102 -0.265,0.218 -0.404,0.333 -0.189,-0.552 -0.461,-1.049 -0.803,-1.512 m 4.778,7.93 C -0.052,4.215 -0.059,4.2 -0.062,4.184 -0.199,3.596 -0.389,3.031 -0.738,2.532 -0.752,2.512 -0.756,2.474 -0.746,2.452 -0.623,2.179 -0.503,1.905 -0.371,1.637 -0.07,1.027 0.273,0.443 0.687,-0.099 c 0.419,-0.549 0.872,-1.06 1.42,-1.483 0.076,-0.059 0.121,-0.061 0.156,0.039 0.152,0.441 0.31,0.88 0.456,1.324 0.057,0.17 0.097,0.349 0.125,0.527 C 2.903,0.677 2.967,1.048 2.995,1.42 3.02,1.756 3.002,2.095 3.001,2.433 3.001,2.618 2.989,2.628 2.81,2.686 2.494,2.789 2.169,2.87 1.868,3.005 1.247,3.282 0.68,3.651 0.164,4.098 0.104,4.15 0.039,4.195 -0.039,4.254 M -5.4,4.263 C -5.547,4.145 -5.687,4.032 -5.828,3.92 -6.54,3.359 -7.319,2.931 -8.201,2.702 -8.44,2.641 -8.42,2.701 -8.432,2.41 -8.46,1.729 -8.446,1.05 -8.31,0.378 c 0.129,-0.639 0.311,-1.261 0.563,-1.862 0.074,-0.175 0.089,-0.184 0.236,-0.06 0.225,0.19 0.45,0.382 0.658,0.591 0.44,0.444 0.805,0.949 1.144,1.475 0.383,0.593 0.709,1.215 0.991,1.862 0.034,0.078 0.028,0.138 -0.02,0.21 C -4.982,2.967 -5.169,3.366 -5.283,3.799 -5.322,3.948 -5.359,4.098 -5.4,4.263 M -4.324,2.059 C -4.348,2.02 -4.364,1.996 -4.377,1.971 -4.629,1.49 -4.882,1.009 -5.131,0.526 -5.143,0.503 -5.137,0.463 -5.125,0.439 c 0.063,-0.124 0.126,-0.248 0.196,-0.367 0.251,-0.425 0.485,-0.86 0.762,-1.267 0.351,-0.518 0.812,-0.931 1.337,-1.271 0.071,-0.046 0.13,-0.051 0.207,-0.002 0.431,0.272 0.799,0.616 1.132,0.998 0.495,0.568 0.858,1.219 1.162,1.905 C -0.313,0.472 -0.32,0.533 -0.34,0.571 -0.562,1.007 -0.791,1.439 -1.012,1.875 -1.094,2.037 -1.095,2.048 -1.226,1.928 -1.587,1.594 -1.983,1.313 -2.409,1.069 -2.611,0.954 -2.792,0.943 -3,1.055 -3.489,1.318 -3.941,1.627 -4.324,2.059 m 1.607,5.848 C -2.733,7.886 -2.75,7.868 -2.762,7.847 -2.984,7.469 -3.195,7.084 -3.428,6.712 -3.871,6.003 -4.354,5.322 -4.944,4.725 -4.963,4.706 -4.973,4.663 -4.966,4.637 c 0.103,-0.395 0.178,-0.801 0.322,-1.181 0.329,-0.869 0.973,-1.463 1.763,-1.909 0.07,-0.04 0.194,-0.059 0.258,-0.024 0.548,0.297 1.037,0.67 1.412,1.178 0.422,0.57 0.645,1.218 0.737,1.916 0.006,0.044 -0.023,0.106 -0.057,0.141 -0.548,0.571 -1.023,1.2 -1.441,1.871 -0.258,0.415 -0.493,0.844 -0.745,1.278 m -0.657,3 C -3.3,10.792 -3.236,10.698 -3.18,10.601 -2.92,10.154 -3.013,9.683 -3.098,9.217 -3.139,8.994 -3.184,8.972 -3.416,8.956 -4.366,8.888 -5.227,8.567 -6.004,8.022 -6.996,7.326 -7.742,6.41 -8.33,5.357 -8.727,4.647 -9.017,3.891 -9.289,3.127 c -0.035,-0.1 0.015,-0.119 0.1,-0.113 0.431,0.031 0.85,0.124 1.253,0.272 0.951,0.348 1.765,0.918 2.49,1.618 0.456,0.44 0.863,0.927 1.205,1.461 0.361,0.562 0.696,1.142 1.039,1.716 0.1,0.167 0.181,0.344 0.282,0.509 0.11,0.179 0.326,0.168 0.426,-0.014 C -2.468,8.528 -2.445,8.478 -2.421,8.429 -1.775,7.098 -0.971,5.88 0.084,4.836 0.497,4.427 0.953,4.076 1.45,3.782 2.01,3.449 2.606,3.2 3.249,3.081 3.444,3.045 3.643,3.026 3.855,2.997 3.842,3.062 3.838,3.095 3.828,3.127 3.58,3.928 3.253,4.694 2.818,5.413 2.301,6.269 1.683,7.037 0.907,7.671 c -0.59,0.482 -1.235,0.865 -1.971,1.067 -0.343,0.094 -0.699,0.142 -1.051,0.2 -0.23,0.038 -0.288,0.094 -0.288,0.33 0,0.076 0.007,0.152 0.005,0.228 -0.01,0.499 -0.151,0.94 -0.548,1.27 -0.119,0.099 -0.252,0.147 -0.428,0.141 m 6.85,-8.359 c 0,-0.101 -0.005,-0.201 0,-0.302 C 3.531,1.131 3.368,0.046 2.994,-1.004 2.862,-1.373 2.703,-1.733 2.549,-2.094 2.476,-2.264 2.334,-2.307 2.17,-2.218 2.086,-2.171 2.01,-2.11 1.929,-2.057 1.906,-2.041 1.88,-2.028 1.851,-2.012 1.76,-2.263 1.674,-2.509 1.581,-2.752 1.337,-3.391 1.008,-3.984 0.591,-4.524 0.538,-4.593 0.439,-4.638 0.353,-4.663 0.309,-4.676 0.232,-4.635 0.192,-4.596 c -0.152,0.146 -0.294,0.302 -0.44,0.454 -0.013,0.014 -0.032,0.023 -0.045,0.032 -0.12,-0.204 -0.234,-0.405 -0.356,-0.601 -0.398,-0.64 -0.925,-1.138 -1.579,-1.516 -0.348,-0.202 -0.647,-0.198 -0.996,0.001 -0.829,0.472 -1.407,1.165 -1.847,1.994 -0.059,0.11 -0.094,0.119 -0.183,0.027 -0.127,-0.13 -0.248,-0.265 -0.38,-0.388 -0.143,-0.134 -0.289,-0.108 -0.402,0.049 -0.534,0.743 -0.923,1.559 -1.221,2.422 -0.011,0.035 -0.029,0.067 -0.048,0.111 -0.092,-0.064 -0.171,-0.125 -0.255,-0.178 -0.212,-0.132 -0.357,-0.098 -0.46,0.128 -0.32,0.706 -0.561,1.437 -0.721,2.197 -0.119,0.565 -0.177,1.136 -0.194,1.711 -0.006,0.222 0.022,0.446 0.035,0.681 -0.089,0 -0.179,0.002 -0.269,-10e-4 -0.159,-0.004 -0.319,-0.016 -0.478,-0.016 -0.176,10e-4 -0.259,0.082 -0.228,0.252 0.042,0.231 0.089,0.467 0.171,0.686 0.311,0.82 0.644,1.63 1.096,2.386 0.69,1.155 1.555,2.142 2.721,2.833 0.579,0.343 1.201,0.585 1.869,0.693 0.132,0.021 0.264,0.045 0.394,0.073 0.026,0.005 0.064,0.036 0.065,0.056 0.003,0.243 0.016,0.488 -0.009,0.729 -0.011,0.111 -0.095,0.217 -0.153,0.322 -0.036,0.066 -0.092,0.121 -0.127,0.188 -0.087,0.164 -0.057,0.332 0.072,0.465 0.213,0.217 0.56,0.266 0.879,0.107 0.378,-0.189 0.628,-0.501 0.791,-0.887 0.118,-0.279 0.18,-0.571 0.177,-0.875 0,-0.081 0.02,-0.117 0.109,-0.131 C -0.677,9.23 0.342,8.767 1.236,8.032 1.897,7.488 2.456,6.846 2.937,6.136 3.604,5.153 4.05,4.068 4.385,2.933 4.488,2.584 4.416,2.495 4.051,2.51 3.863,2.518 3.675,2.534 3.476,2.548" /></g></g></g></g></svg>